<?xml version="1.0" encoding="utf-8"?>
<!-- Generator: Adobe Illustrator 24.3.0, SVG Export Plug-In . SVG Version: 6.00 Build 0)  -->
<svg version="1.1" id="Layer_1" xmlns="http://www.w3.org/2000/svg" xmlns:xlink="http://www.w3.org/1999/xlink" x="0px" y="0px"
	 viewBox="0 0 152 165" style="enable-background:new 0 0 152 165;" xml:space="preserve">
<style type="text/css">
	.st0{fill:#FFF9EF;}
</style>
<g>
	<path class="st0" d="M0,129.1V35.6h31.9c11.6,0,20.9,2,27.4,5.7c13.3,7.6,21.6,22,21.6,41.1c0,30.8-18.2,46.8-47.4,46.8H0z
		 M34.6,108.1c13.8,0,22.4-8.6,22.4-25.7c0-16.7-8.5-25.9-22.2-25.9H23.9v51.6H34.6z"/>
	<path class="st0" d="M124.1,62.9c-1.2-6.7-4.3-9.1-9.7-9.1c-5.1,0-9.4,3.2-9.4,7.3c0,5.6,5.8,8.1,17.5,12.5
		c23.6,8.8,29.5,16.3,29.5,28.6c0,18.1-14.2,28.7-37.3,28.7c-23.3,0-38.6-10.6-38.6-30.7v-2h27.2c0.1,7.7,4.5,12.8,11.3,12.8
		c5.6,0,10.3-3.9,10.3-9c0-7.5-11.9-10.7-21.5-14.2c-17.5-6.2-25.4-14.3-25.4-26.4c0-15.9,17.6-27.6,37.3-27.6
		c7.1,0,13.3,1.4,18.9,3.9c11.4,5.2,16.9,12.6,17.1,25.2H124.1z"/>
</g>
</svg>
